<?xml version="1.0" encoding="UTF-8" standalone="no"?>
<svg width="144" xmlns="http://www.w3.org/2000/svg" version="1.1" height="22">
 <defs>
  <mask id="m0">
   <rect y="2" x="0" style="fill:#fff" height="18" width="18"/>
   <text y="14.5" x="9" style="text-anchor:middle;font-size:12;font-family:DejaVu Sans;font-weight:500;fill:black">⇧</text>
  </mask>
  <mask id="m1">
   <rect y="2" x="18" style="fill:#fff" height="18" width="18"/>
   <text y="14.5" x="27" style="text-anchor:middle;font-size:12;font-family:DejaVu Sans;font-weight:500;fill:black">⇬</text>
  </mask>
  <mask id="m2">
   <rect y="2" x="36" style="fill:#fff" height="18" width="18"/>
   <text y="14.5" x="45" style="text-anchor:middle;font-size:12;font-family:DejaVu Sans;font-weight:500;fill:black">⋀</text>
  </mask>
  <mask id="m3">
   <rect y="2" x="54" style="fill:#fff" height="18" width="18"/>
   <text y="14.5" x="63" style="text-anchor:middle;font-size:12;font-family:DejaVu Sans;font-weight:500;fill:black">⌥</text>
  </mask>
  <mask id="m4">
   <rect y="2" x="72" style="fill:#fff" height="18" width="18"/>
   <text y="14.5" x="81" style="text-anchor:middle;font-size:12;font-family:DejaVu Sans;font-weight:500;fill:black">①</text>
  </mask>
  <mask id="m5">
   <rect y="2" x="90" style="fill:#fff" height="18" width="18"/>
   <text y="14.5" x="99" style="text-anchor:middle;font-size:12;font-family:DejaVu Sans;font-weight:500;fill:black">5</text>
  </mask>
  <mask id="m6">
   <rect y="2" x="108" style="fill:#fff" height="18" width="18"/>
   <text y="14.5" x="117" style="text-anchor:middle;font-size:12;font-family:DejaVu Sans;font-weight:500;fill:black">⌘</text>
  </mask>
  <mask id="m7">
   <rect y="2" x="126" style="fill:#fff" height="18" width="18"/>
   <text y="14.5" x="135" style="text-anchor:middle;font-size:12;font-family:DejaVu Sans;font-weight:500;fill:black">⎇</text>
  </mask>
 </defs>
 <rect style="fill:#dfdbd2" mask="url(#m0)" rx="2" height="16" width="16" y="3" x="1"/>
 <rect style="fill:#dfdbd2" mask="url(#m1)" rx="2" height="16" width="16" y="3" x="19"/>
 <rect style="fill:#dfdbd2" mask="url(#m2)" rx="2" height="16" width="16" y="3" x="37"/>
 <rect style="fill:#dfdbd2" mask="url(#m3)" rx="2" height="16" width="16" y="3" x="55"/>
 <rect style="fill:#dfdbd2" mask="url(#m4)" rx="2" height="16" width="16" y="3" x="73"/>
 <rect style="fill:#dfdbd2" mask="url(#m5)" rx="2" height="16" width="16" y="3" x="91"/>
 <rect style="fill:#dfdbd2" mask="url(#m6)" rx="2" height="16" width="16" y="3" x="109"/>
 <rect style="fill:#dfdbd2" mask="url(#m7)" rx="2" height="16" width="16" y="3" x="127"/>
</svg>
